<mxfile host="65bd71144e">
    <diagram id="3ZI9yJNvnaPlXbGqqHri" name="ページ1">
        <mxGraphModel dx="1400" dy="522" grid="1" gridSize="10" guides="1" tooltips="1" connect="1" arrows="1" fold="1" page="1" pageScale="1" pageWidth="827" pageHeight="1169" math="0" shadow="0">
            <root>
                <mxCell id="0"/>
                <mxCell id="1" parent="0"/>
                <mxCell id="2" value="&amp;lt;model/domain&amp;gt;&lt;br&gt;&lt;font style=&quot;font-size: 15px;&quot;&gt;User&lt;/font&gt;" style="swimlane;whiteSpace=wrap;html=1;startSize=40;" parent="1" vertex="1">
                    <mxGeometry x="365" y="370" width="200" height="70" as="geometry"/>
                </mxCell>
                <mxCell id="22" style="edgeStyle=none;html=1;exitX=0.5;exitY=1;exitDx=0;exitDy=0;entryX=0.5;entryY=0;entryDx=0;entryDy=0;dashed=1;fontSize=13;" parent="1" source="14" target="2" edge="1">
                    <mxGeometry relative="1" as="geometry"/>
                </mxCell>
                <mxCell id="43" style="edgeStyle=none;html=1;exitX=1;exitY=0.5;exitDx=0;exitDy=0;fontSize=15;dashed=1;" parent="1" source="14" edge="1">
                    <mxGeometry relative="1" as="geometry">
                        <mxPoint x="710" y="265" as="targetPoint"/>
                    </mxGeometry>
                </mxCell>
                <mxCell id="14" value="&lt;font style=&quot;font-size: 12px;&quot;&gt;&amp;lt;model/Service&amp;gt;&lt;/font&gt;&lt;br&gt;RegisterUserService" style="swimlane;whiteSpace=wrap;html=1;fontSize=15;startSize=40;" parent="1" vertex="1">
                    <mxGeometry x="290" y="210" width="350" height="110" as="geometry"/>
                </mxCell>
                <mxCell id="35" value="&lt;span style=&quot;font-size: 13px;&quot;&gt;+ searchByEmail(email: String):User&lt;/span&gt;&lt;br style=&quot;font-size: 13px;&quot;&gt;&lt;span style=&quot;font-size: 13px;&quot;&gt;+ registerUser(registerUserForm: RegisterUserForm):void&lt;/span&gt;" style="text;html=1;align=center;verticalAlign=middle;resizable=0;points=[];autosize=1;strokeColor=none;fillColor=none;fontSize=15;" parent="14" vertex="1">
                    <mxGeometry x="-5" y="50" width="360" height="50" as="geometry"/>
                </mxCell>
                <mxCell id="15" value="&lt;font style=&quot;&quot;&gt;&amp;lt;model/Repository&amp;gt;&lt;br style=&quot;&quot;&gt;&lt;font style=&quot;font-size: 15px;&quot;&gt;UserRepository&lt;/font&gt;&lt;/font&gt;" style="swimlane;whiteSpace=wrap;html=1;fontSize=12;startSize=40;" parent="1" vertex="1">
                    <mxGeometry x="710" y="210" width="300" height="110" as="geometry"/>
                </mxCell>
                <mxCell id="16" value="+ findByEmail(email: String):User&lt;br style=&quot;font-size: 13px;&quot;&gt;+ insert(registerUserForm: RegisterUserForm):void" style="text;html=1;align=center;verticalAlign=middle;resizable=0;points=[];autosize=1;strokeColor=none;fillColor=none;fontSize=13;" parent="15" vertex="1">
                    <mxGeometry x="-10" y="50" width="320" height="40" as="geometry"/>
                </mxCell>
                <mxCell id="25" style="edgeStyle=none;html=1;exitX=1;exitY=0.5;exitDx=0;exitDy=0;dashed=1;fontSize=15;" parent="1" source="23" edge="1">
                    <mxGeometry relative="1" as="geometry">
                        <mxPoint x="290" y="290" as="targetPoint"/>
                    </mxGeometry>
                </mxCell>
                <mxCell id="28" style="edgeStyle=none;html=1;exitX=0.5;exitY=0;exitDx=0;exitDy=0;entryX=0.5;entryY=1;entryDx=0;entryDy=0;dashed=1;fontSize=13;" parent="1" source="23" target="26" edge="1">
                    <mxGeometry relative="1" as="geometry"/>
                </mxCell>
                <mxCell id="29" style="edgeStyle=none;html=1;exitX=0;exitY=0.5;exitDx=0;exitDy=0;fontSize=13;" parent="1" source="23" edge="1">
                    <mxGeometry relative="1" as="geometry">
                        <mxPoint x="-50" y="265" as="targetPoint"/>
                    </mxGeometry>
                </mxCell>
                <mxCell id="36" style="edgeStyle=none;html=1;exitX=0;exitY=1;exitDx=0;exitDy=0;fontSize=15;entryX=1;entryY=0.5;entryDx=0;entryDy=0;" parent="1" source="23" target="38" edge="1">
                    <mxGeometry relative="1" as="geometry">
                        <mxPoint x="-40" y="370" as="targetPoint"/>
                    </mxGeometry>
                </mxCell>
                <mxCell id="41" style="edgeStyle=none;html=1;exitX=0;exitY=0.25;exitDx=0;exitDy=0;entryX=1;entryY=0.5;entryDx=0;entryDy=0;fontSize=15;" parent="1" source="23" target="31" edge="1">
                    <mxGeometry relative="1" as="geometry"/>
                </mxCell>
                <mxCell id="23" value="&lt;font style=&quot;font-size: 12px;&quot;&gt;&amp;lt;controller&amp;gt;&lt;/font&gt;&lt;br&gt;RegisterUserController" style="swimlane;whiteSpace=wrap;html=1;fontSize=15;startSize=40;" parent="1" vertex="1">
                    <mxGeometry x="-85.62" y="260" width="348.75" height="110" as="geometry"/>
                </mxCell>
                <mxCell id="24" value="+ index():String&lt;br style=&quot;font-size: 13px;&quot;&gt;+&amp;nbsp;registerUser(registerUserForm:RegisterUserForm):String" style="text;html=1;align=center;verticalAlign=middle;resizable=0;points=[];autosize=1;strokeColor=none;fillColor=none;fontSize=13;" parent="23" vertex="1">
                    <mxGeometry x="-5.619999999999999" y="60" width="360" height="40" as="geometry"/>
                </mxCell>
                <mxCell id="26" value="&lt;font style=&quot;font-size: 12px;&quot;&gt;&amp;lt;controller/form&amp;gt;&lt;/font&gt;&lt;br&gt;RegisterUserForm" style="swimlane;whiteSpace=wrap;html=1;fontSize=15;startSize=50;" parent="1" vertex="1">
                    <mxGeometry x="-11.25" y="30" width="200" height="180" as="geometry"/>
                </mxCell>
                <mxCell id="27" value="- lastName:String&lt;br&gt;- firstName:String&lt;br&gt;- email:String&lt;br&gt;- zipcode:String&lt;br&gt;- address:String&lt;br&gt;- telephone:String&lt;br&gt;-password:String&lt;br&gt;-confirmationPassword" style="text;html=1;align=center;verticalAlign=middle;resizable=0;points=[];autosize=1;strokeColor=none;fillColor=none;fontSize=12;" parent="26" vertex="1">
                    <mxGeometry x="20" y="50" width="150" height="130" as="geometry"/>
                </mxCell>
                <mxCell id="31" value="&lt;font style=&quot;font-size: 12px;&quot;&gt;&amp;lt;view&amp;gt;&lt;/font&gt;&lt;br&gt;&lt;font style=&quot;font-size: 15px;&quot;&gt;register-admin.html&lt;/font&gt;" style="swimlane;whiteSpace=wrap;html=1;fontSize=13;startSize=40;" parent="1" vertex="1">
                    <mxGeometry x="-310" y="220" width="200" height="90" as="geometry"/>
                </mxCell>
                <mxCell id="34" value="&lt;span style=&quot;color: rgba(0, 0, 0, 0); font-family: monospace; font-size: 0px; text-align: start;&quot;&gt;%3CmxGraphModel%3E%3Croot%3E%3CmxCell%20id%3D%220%22%2F%3E%3CmxCell%20id%3D%221%22%20parent%3D%220%22%2F%3E%3CmxCell%20id%3D%222%22%20value%3D%22%2B%20findByEmail(email%3A%20String)%3AUser%26lt%3Bbr%20style%3D%26quot%3Bfont-size%3A%2013px%3B%26quot%3B%26gt%3B%2B%20insert(user%3A%20User)%3Avoid%22%20style%3D%22text%3Bhtml%3D1%3Balign%3Dcenter%3BverticalAlign%3Dmiddle%3Bresizable%3D0%3Bpoints%3D%5B%5D%3Bautosize%3D1%3BstrokeColor%3Dnone%3BfillColor%3Dnone%3BfontSize%3D13%3B%22%20vertex%3D%221%22%20parent%3D%221%22%3E%3CmxGeometry%20x%3D%22555%22%20y%3D%22260%22%20width%3D%22220%22%20height%3D%2240%22%20as%3D%22geometry%22%2F%3E%3C%2FmxCell%3E%3C%2Froot%3E%3C%2FmxGraphModel%3E&lt;/span&gt;" style="text;html=1;align=center;verticalAlign=middle;resizable=0;points=[];autosize=1;strokeColor=none;fillColor=none;fontSize=15;" parent="1" vertex="1">
                    <mxGeometry x="350" y="265" width="20" height="30" as="geometry"/>
                </mxCell>
                <mxCell id="38" value="&lt;font style=&quot;font-size: 12px;&quot;&gt;&amp;lt;controller&amp;gt;&lt;/font&gt;&lt;br&gt;LoginController" style="swimlane;whiteSpace=wrap;html=1;fontSize=15;startSize=40;" parent="1" vertex="1">
                    <mxGeometry x="-320" y="370" width="200" height="110" as="geometry"/>
                </mxCell>
                <mxCell id="39" value="+ index():String" style="text;html=1;align=center;verticalAlign=middle;resizable=0;points=[];autosize=1;strokeColor=none;fillColor=none;fontSize=13;" parent="38" vertex="1">
                    <mxGeometry x="45" y="55" width="110" height="30" as="geometry"/>
                </mxCell>
            </root>
        </mxGraphModel>
    </diagram>
</mxfile>